<svg width="27" height="26" viewBox="0 0 27 26" fill="none" xmlns="http://www.w3.org/2000/svg">
<path d="M7.1391 16.5922H23.3623C24.0399 16.5922 24.6368 16.1463 24.8292 15.4962L26.5553 9.65711C26.7424 9.02441 26.2681 8.38965 25.6085 8.38965H5.00903L7.1391 16.5922Z" fill="white"/>
<path d="M23.5185 20.3757H8.00578C7.80277 20.3757 7.62546 20.2383 7.57433 20.0421L4.25659 7.26523C4.13218 6.78649 3.70014 6.45227 3.20545 6.45227H0.445636C0.199472 6.45227 0 6.2525 0 6.00634C0 5.76017 0.199472 5.5607 0.445636 5.5607H3.20545C4.10617 5.5607 4.89313 6.16946 5.1192 7.04123L8.35065 19.4842H23.5185C23.7647 19.4842 23.9642 19.6839 23.9642 19.9298C23.9642 20.176 23.7644 20.3757 23.5185 20.3757Z" fill="white"/>
<path d="M10.6905 25.4222C11.7572 25.4222 12.622 24.5575 12.622 23.4907C12.622 22.424 11.7572 21.5593 10.6905 21.5593C9.62379 21.5593 8.75903 22.424 8.75903 23.4907C8.75903 24.5575 9.62379 25.4222 10.6905 25.4222Z" fill="white"/>
<path d="M20.4366 25.4222C21.5033 25.4222 22.3681 24.5575 22.3681 23.4907C22.3681 22.424 21.5033 21.5593 20.4366 21.5593C19.3699 21.5593 18.5051 22.424 18.5051 23.4907C18.5051 24.5575 19.3699 25.4222 20.4366 25.4222Z" fill="white"/>
<path d="M15.3665 11.7594C15.2908 11.7594 15.2152 11.7304 15.1576 11.6728L9.84244 6.3577C9.78718 6.30244 9.75586 6.22708 9.75586 6.14877C9.75586 6.07046 9.78689 5.9951 9.84244 5.93984L11.7822 4.00008C11.8977 3.88454 12.0845 3.88454 12.2001 4.00008L13.6992 5.49923V0.295514C13.6992 0.13239 13.8313 0 13.9947 0H16.738C16.9014 0 17.0335 0.13239 17.0335 0.295514V5.49923L18.5326 4.00008C18.6482 3.88454 18.835 3.88454 18.9505 4.00008L20.8903 5.93984C20.9458 5.9951 20.9768 6.07046 20.9768 6.14877C20.9768 6.22708 20.9458 6.30244 20.8903 6.3577L15.5754 11.6728C15.5178 11.7304 15.4421 11.7594 15.3665 11.7594Z" fill="#345C7D"/>
</svg>
